<svg width="592" height="421" viewBox="0 0 592 421" fill="none" xmlns="http://www.w3.org/2000/svg">
<g clip-path="url(#clip0_2_31)">
<path d="M481.91 274.158L472.715 247.185L457.361 252.416L426 160.396L391.037 172.308L391.142 172.621L379.865 221.299L363.82 290.549L373.18 311.215L406.194 299.965L418.212 295.868L431.591 291.307L442.514 323.365L477.478 311.453L466.554 279.395L481.91 274.158ZM418.336 265.717L410.405 268.42L395.216 273.597L405.583 222.124L406.558 217.853L422.396 264.332L418.336 265.717Z" fill="#9DC2E7"/>
<path opacity="0.25" d="M466.554 279.394L477.478 311.452L455.208 301.926L419.615 173.682L406.558 217.854L400.512 242.873L379.866 221.297L391.143 172.62L391.038 172.307L426 160.396L457.36 252.417L472.714 247.185L481.91 274.158L466.554 279.394Z" fill="#010101"/>
<path opacity="0.25" d="M418.212 295.867L406.194 299.964L407.96 275.197V270.682L410.405 268.42L411.978 266.967L418.335 265.717C418.336 265.717 417.942 283.909 418.212 295.867Z" fill="#010101"/>
<path d="M418.338 265.716C418.338 265.716 415.334 261.944 410.09 262.38C404.846 262.816 401.92 264.783 401.744 270.245C401.568 275.708 402.871 303.237 401.674 314.162C400.477 325.087 407.925 326.179 408.352 318.095C408.78 310.011 405.615 284.666 407.961 280.515C410.309 276.364 408.88 285.103 411.342 287.944C413.805 290.784 416.426 285.759 413.805 278.986C411.182 272.212 418.338 265.716 418.338 265.716Z" fill="url(#paint0_linear_2_31)"/>
<path d="M349.771 278.622L344.502 251.714C340.604 231.812 333.087 217.294 321.952 208.153C310.812 199.018 297.053 196.053 280.672 199.262C264.291 202.471 252.674 210.369 245.828 222.951C238.978 235.539 237.507 251.818 241.419 271.79L246.706 298.8C250.591 318.633 258.099 333.119 269.238 342.254C273.941 346.111 279.118 348.869 284.768 350.521C292.496 352.788 301.112 352.985 310.614 351.127C315.538 350.166 320.035 348.773 324.094 346.952C333.49 342.741 340.579 336.245 345.361 327.455C352.212 314.868 353.679 298.588 349.771 278.622ZM316.881 314.739C315.079 320.257 311.268 323.585 305.447 324.725C299.42 325.906 294.523 324.214 290.745 319.645C288.17 316.532 285.968 311.912 284.142 305.784C284.142 305.779 284.142 305.774 284.142 305.774C284.138 305.765 284.138 305.755 284.133 305.742C283.287 302.901 282.524 299.733 281.843 296.244L274.447 258.468C272.714 248.546 272.709 240.887 274.428 235.489C276.148 230.093 279.954 226.814 285.843 225.665C290.335 224.782 294.21 225.541 297.465 227.932H297.47C298.578 228.75 299.616 229.752 300.582 230.948C304.384 235.651 307.326 243.32 309.404 253.944L316.562 290.498C318.578 301.14 318.684 309.217 316.881 314.739Z" fill="#F26647"/>
<path opacity="0.25" d="M319.525 319.787C321.043 322.123 323.06 338.002 324.095 346.953C320.035 348.774 315.538 350.167 310.615 351.128C301.113 352.985 292.497 352.788 284.769 350.522C285.085 349.809 285.375 349.064 285.623 348.301C290.446 333.566 284.419 306.98 284.143 305.784C285.968 311.912 288.17 316.532 290.746 319.645C294.524 324.214 299.421 325.906 305.448 324.725C311.268 323.584 315.08 320.256 316.882 314.739C318.685 309.218 318.578 301.14 316.565 290.497L309.407 253.943C307.329 243.319 304.386 235.65 300.585 230.947C299.619 229.752 298.581 228.75 297.473 227.931C309.1 230.211 318.543 266.209 322.478 283.574C326.408 300.942 326.739 308.974 319.525 319.787Z" fill="#010101"/>
<path d="M286.708 312.847C286.708 312.847 287.462 314.818 291.422 315.91C295.383 317.002 299.097 310.876 301.719 312.847C304.341 314.818 308.537 322.987 312.229 321.743C315.921 320.499 317.013 340.163 315.266 342.348C313.518 344.533 312.261 326.873 307.646 327.401C303.03 327.927 306.526 341.255 303.904 343.659C301.282 346.063 302.375 337.76 299.535 336.23C296.694 334.701 302.594 403.088 298.223 404.18C293.853 405.273 291.013 401.121 292.761 386.483C294.509 371.845 292.323 321.373 289.701 318.751C287.081 316.129 287.245 315.637 286.708 312.847Z" fill="#6561AB"/>
<path d="M226.634 171.742L191.262 165.664L191.207 165.981L113.092 253.929L111.479 275.914L122.683 277.84L142.075 281.173L168.105 285.647L170.579 286.07L168.717 296.915L167.853 301.932L165.007 318.505L188.03 322.463L200.38 324.583L205.951 292.148L221.49 294.814L226.179 267.519L210.64 264.853L226.634 171.742ZM182.477 216.81L175.263 258.775L166.634 257.29L147.761 254.05L158.211 241.577L160.602 238.722L180.527 214.94L183.345 211.75L182.477 216.81Z" fill="#6561AB"/>
<path opacity="0.25" d="M168.105 285.647L142.075 281.173C145.141 271.045 148.967 257.087 147.762 254.049L166.635 257.289C167.844 259.304 168.8 262.075 169.058 265.878C169.517 272.609 168.514 279.482 168.105 285.647Z" fill="#010101"/>
<path d="M148.888 254.245C148.888 254.245 151.726 250.307 158.117 251.537C164.508 252.767 165 260.633 162.214 269.318C159.428 278.003 158.773 308.318 160.083 318.15C161.395 327.982 160.575 332.571 157.462 332.898C154.349 333.226 152.873 321.099 154.676 312.579C156.479 304.058 156.315 296.192 153.365 297.503C150.415 298.815 152.873 302.092 151.398 305.041C149.923 307.99 145.499 306.188 145.663 300.616C145.827 295.044 154.736 258.835 148.888 254.245Z" fill="#9DC2E7"/>
<path opacity="0.25" d="M210.64 264.853L226.179 267.519L221.49 294.814L205.951 292.148L200.379 324.583L188.03 322.462L209.735 187.033L226.634 171.742L210.64 264.853Z" fill="#010101"/>
<path d="M259.55 138.623C263.08 138.623 265.941 135.762 265.941 132.232C265.941 128.702 263.08 125.841 259.55 125.841C256.02 125.841 253.159 128.702 253.159 132.232C253.159 135.762 256.02 138.623 259.55 138.623Z" fill="#F47920"/>
<path d="M481.91 219.839C485.44 219.839 488.301 216.978 488.301 213.448C488.301 209.918 485.44 207.057 481.91 207.057C478.38 207.057 475.519 209.918 475.519 213.448C475.519 216.978 478.38 219.839 481.91 219.839Z" fill="#6561AB"/>
<path d="M147.762 173.178C151.292 173.178 154.153 170.317 154.153 166.787C154.153 163.257 151.292 160.396 147.762 160.396C144.232 160.396 141.371 163.257 141.371 166.787C141.371 170.317 144.232 173.178 147.762 173.178Z" fill="#9DC2E7"/>
<path d="M253.16 368.621C256.69 368.621 259.551 365.76 259.551 362.23C259.551 358.7 256.69 355.839 253.16 355.839C249.63 355.839 246.769 358.7 246.769 362.23C246.769 365.76 249.63 368.621 253.16 368.621Z" fill="#F26647"/>
<path d="M445.376 153.935C446.737 153.935 447.841 152.831 447.841 151.47C447.841 150.109 446.737 149.005 445.376 149.005C444.015 149.005 442.911 150.109 442.911 151.47C442.911 152.831 444.015 153.935 445.376 153.935Z" fill="#F47920"/>
<path d="M257.085 192.318C258.446 192.318 259.55 191.214 259.55 189.853C259.55 188.492 258.446 187.388 257.085 187.388C255.724 187.388 254.62 188.492 254.62 189.853C254.62 191.214 255.724 192.318 257.085 192.318Z" fill="#9DC2E7"/>
<path d="M183.345 158.942C184.706 158.942 185.81 157.838 185.81 156.477C185.81 155.116 184.706 154.012 183.345 154.012C181.984 154.012 180.88 155.116 180.88 156.477C180.88 157.838 181.984 158.942 183.345 158.942Z" fill="#6561AB"/>
<path d="M516.823 21.3859C516.823 21.3859 506.972 11.5539 488.301 15.4869C469.629 19.4199 456.506 48.9159 442.912 55.4699C429.317 62.0249 402.516 81.3799 400.513 97.9209C426.696 76.1179 436.528 85.6219 453.57 82.9999C470.612 80.3779 471.923 60.3859 496.504 61.0419C521.084 61.6969 547.303 92.2389 571.883 75.1659C596.463 58.0929 625.304 37.7729 602.034 21.0589C578.764 4.34489 531.571 29.9069 516.823 21.3859Z" fill="url(#paint1_linear_2_31)"/>
<path d="M117.974 87.8389C117.974 87.8389 115.41 101.518 129.187 114.72C142.963 127.922 174.723 122.126 187.802 129.656C200.881 137.186 231.979 148.406 246.769 140.731C213.998 131.404 216.302 117.925 204.526 105.329C192.751 92.7339 175.502 102.925 162.182 82.2569C148.862 61.5879 159.297 22.7129 131.337 12.0419C103.376 1.3709 70.331 -10.9881 69.65 17.6539C68.969 46.2959 116.694 70.8539 117.974 87.8389Z" fill="url(#paint2_linear_2_31)"/>
<path d="M593.84 166.262C593.84 166.262 553.857 210.13 545.335 261.564C536.814 312.999 495.828 309.721 481.909 333.973C467.989 358.225 434.817 360.192 419.613 370.024C404.409 379.856 369.77 362.814 363.82 370.024C357.871 377.234 394.89 388.378 442.911 389.033C490.932 389.688 500.107 352.327 542.713 347.083C585.319 341.839 627.924 323.486 643 254.005C658.077 184.526 632.513 147.343 593.84 166.262Z" fill="url(#paint3_linear_2_31)"/>
<path d="M16.78 183.927C16.78 183.927 56.763 227.796 65.285 279.229C73.806 330.663 114.792 327.385 128.711 351.638C142.63 375.89 175.803 377.857 191.007 387.689C206.211 397.521 240.85 380.479 246.8 387.689C252.749 394.899 215.73 406.042 167.709 406.698C119.688 407.353 110.513 369.991 67.907 364.748C25.302 359.504 -17.305 341.151 -32.38 271.671C-47.457 202.191 -21.893 165.007 16.78 183.927Z" fill="url(#paint4_linear_2_31)"/>
</g>
<defs>
<linearGradient id="paint0_linear_2_31" x1="406.622" y1="238.229" x2="414.487" y2="364.077" gradientUnits="userSpaceOnUse">
<stop stop-color="#FCAF17"/>
<stop offset="1" stop-color="#F47920"/>
</linearGradient>
<linearGradient id="paint1_linear_2_31" x1="552.579" y1="41.2084" x2="331.685" y2="92.3353" gradientUnits="userSpaceOnUse">
<stop stop-color="white" stop-opacity="0"/>
<stop offset="1" stop-color="#9DC2E7"/>
</linearGradient>
<linearGradient id="paint2_linear_2_31" x1="114.18" y1="47.1314" x2="280.968" y2="200.72" gradientUnits="userSpaceOnUse">
<stop stop-color="white" stop-opacity="0"/>
<stop offset="1" stop-color="#9DC2E7"/>
</linearGradient>
<linearGradient id="paint3_linear_2_31" x1="575.555" y1="264.908" x2="258.48" y2="338.296" gradientUnits="userSpaceOnUse">
<stop stop-color="white" stop-opacity="0"/>
<stop offset="1" stop-color="#9DC2E7"/>
</linearGradient>
<linearGradient id="paint4_linear_2_31" x1="35.0649" y1="282.571" x2="352.141" y2="355.959" gradientUnits="userSpaceOnUse">
<stop stop-color="white" stop-opacity="0"/>
<stop offset="1" stop-color="#9DC2E7"/>
</linearGradient>
<clipPath id="clip0_2_31">
<rect width="591.837" height="420.775" fill="white"/>
</clipPath>
</defs>
</svg>
